<?xml version="1.0" encoding="utf-8" standalone="no"?>
<!DOCTYPE svg PUBLIC "-//W3C//DTD SVG 1.1//EN"
  "http://www.w3.org/Graphics/SVG/1.1/DTD/svg11.dtd">
<svg xmlns:xlink="http://www.w3.org/1999/xlink" width="720pt" height="720pt" viewBox="0 0 720 720" xmlns="http://www.w3.org/2000/svg" version="1.1">
 <metadata>
  <rdf:RDF xmlns:dc="http://purl.org/dc/elements/1.1/" xmlns:cc="http://creativecommons.org/ns#" xmlns:rdf="http://www.w3.org/1999/02/22-rdf-syntax-ns#">
   <cc:Work>
    <dc:type rdf:resource="http://purl.org/dc/dcmitype/StillImage"/>
    <dc:date>2024-09-26T21:33:26.786149</dc:date>
    <dc:format>image/svg+xml</dc:format>
    <dc:creator>
     <cc:Agent>
      <dc:title>Matplotlib v3.5.3, https://matplotlib.org/</dc:title>
     </cc:Agent>
    </dc:creator>
   </cc:Work>
  </rdf:RDF>
 </metadata>
 <defs>
  <style type="text/css">*{stroke-linejoin: round; stroke-linecap: butt}</style>
 </defs>
 <g id="figure_1">
  <g id="patch_1">
   <path d="M 0 720 
L 720 720 
L 720 0 
L 0 0 
z
" style="fill: #ffffff"/>
  </g>
  <g id="axes_1">
   <g id="LineCollection_1">
    <path d="M 192.968536 351.548489 
L 268.654131 281.367271 
" clip-path="url(#p7d0ccdc712)" style="fill: none; stroke: #000000"/>
    <path d="M 192.968536 351.548489 
L 190.339341 448.175275 
" clip-path="url(#p7d0ccdc712)" style="fill: none; stroke: #000000"/>
    <path d="M 192.968536 351.548489 
L 115.101983 308.277015 
" clip-path="url(#p7d0ccdc712)" style="fill: none; stroke: #000000"/>
    <path d="M 268.654131 281.367271 
L 216.536995 256.723563 
" clip-path="url(#p7d0ccdc712)" style="fill: none; stroke: #000000"/>
    <path d="M 268.654131 281.367271 
L 364.45428 225.270172 
" clip-path="url(#p7d0ccdc712)" style="fill: none; stroke: #000000"/>
    <path d="M 190.339341 448.175275 
L 211.556495 483.463903 
" clip-path="url(#p7d0ccdc712)" style="fill: none; stroke: #000000"/>
    <path d="M 190.339341 448.175275 
L 246.618246 451.480372 
" clip-path="url(#p7d0ccdc712)" style="fill: none; stroke: #000000"/>
    <path d="M 190.339341 448.175275 
L 172.187226 539.568848 
" clip-path="url(#p7d0ccdc712)" style="fill: none; stroke: #000000"/>
    <path d="M 115.101983 308.277015 
L 62.479339 265.31488 
" clip-path="url(#p7d0ccdc712)" style="fill: none; stroke: #000000"/>
    <path d="M 364.45428 225.270172 
L 465.410619 172.067337 
" clip-path="url(#p7d0ccdc712)" style="fill: none; stroke: #000000"/>
    <path d="M 172.187226 539.568848 
L 141.029712 600.159706 
" clip-path="url(#p7d0ccdc712)" style="fill: none; stroke: #000000"/>
    <path d="M 172.187226 539.568848 
L 182.744945 602.970631 
" clip-path="url(#p7d0ccdc712)" style="fill: none; stroke: #000000"/>
    <path d="M 465.410619 172.067337 
L 550.056721 135.569094 
" clip-path="url(#p7d0ccdc712)" style="fill: none; stroke: #000000"/>
    <path d="M 465.410619 172.067337 
L 534.781073 190.093056 
" clip-path="url(#p7d0ccdc712)" style="fill: none; stroke: #000000"/>
    <path d="M 465.410619 172.067337 
L 480.430442 113.2042 
" clip-path="url(#p7d0ccdc712)" style="fill: none; stroke: #000000"/>
    <path d="M 177.687941 657.520661 
L 128.784686 653.767706 
" clip-path="url(#p7d0ccdc712)" style="fill: none; stroke: #000000"/>
    <path d="M 177.687941 657.520661 
L 182.744945 602.970631 
" clip-path="url(#p7d0ccdc712)" style="fill: none; stroke: #000000"/>
    <path d="M 128.784686 653.767706 
L 141.029712 600.159706 
" clip-path="url(#p7d0ccdc712)" style="fill: none; stroke: #000000"/>
    <path d="M 182.744945 602.970631 
L 141.029712 600.159706 
" clip-path="url(#p7d0ccdc712)" style="fill: none; stroke: #000000"/>
    <path d="M 657.520661 145.815989 
L 619.693877 107.905098 
" clip-path="url(#p7d0ccdc712)" style="fill: none; stroke: #000000"/>
    <path d="M 657.520661 145.815989 
L 598.283797 169.445033 
" clip-path="url(#p7d0ccdc712)" style="fill: none; stroke: #000000"/>
    <path d="M 619.693877 107.905098 
L 600.082381 62.479339 
" clip-path="url(#p7d0ccdc712)" style="fill: none; stroke: #000000"/>
    <path d="M 619.693877 107.905098 
L 550.056721 135.569094 
" clip-path="url(#p7d0ccdc712)" style="fill: none; stroke: #000000"/>
    <path d="M 598.283797 169.445033 
L 550.056721 135.569094 
" clip-path="url(#p7d0ccdc712)" style="fill: none; stroke: #000000"/>
    <path d="M 598.283797 169.445033 
L 534.781073 190.093056 
" clip-path="url(#p7d0ccdc712)" style="fill: none; stroke: #000000"/>
    <path d="M 600.082381 62.479339 
L 539.728339 85.23518 
" clip-path="url(#p7d0ccdc712)" style="fill: none; stroke: #000000"/>
    <path d="M 550.056721 135.569094 
L 539.728339 85.23518 
" clip-path="url(#p7d0ccdc712)" style="fill: none; stroke: #000000"/>
    <path d="M 539.728339 85.23518 
L 480.430442 113.2042 
" clip-path="url(#p7d0ccdc712)" style="fill: none; stroke: #000000"/>
   </g>
   <g id="PathCollection_1">
    <path d="M 192.968536 363.680519 
C 196.185987 363.680519 199.272094 362.402212 201.547176 360.12713 
C 203.822258 357.852048 205.100565 354.765941 205.100565 351.548489 
C 205.100565 348.331037 203.822258 345.244931 201.547176 342.969849 
C 199.272094 340.694767 196.185987 339.41646 192.968536 339.41646 
C 189.751084 339.41646 186.664977 340.694767 184.389895 342.969849 
C 182.114813 345.244931 180.836506 348.331037 180.836506 351.548489 
C 180.836506 354.765941 182.114813 357.852048 184.389895 360.12713 
C 186.664977 362.402212 189.751084 363.680519 192.968536 363.680519 
z
" clip-path="url(#p7d0ccdc712)" style="fill: #35b779; stroke: #35b779"/>
    <path d="M 268.654131 293.274197 
C 271.811885 293.274197 274.840731 292.019608 277.0736 289.786739 
C 279.306469 287.55387 280.561058 284.525025 280.561058 281.367271 
C 280.561058 278.209517 279.306469 275.180672 277.0736 272.947803 
C 274.840731 270.714934 271.811885 269.460345 268.654131 269.460345 
C 265.496378 269.460345 262.467532 270.714934 260.234663 272.947803 
C 258.001794 275.180672 256.747205 278.209517 256.747205 281.367271 
C 256.747205 284.525025 258.001794 287.55387 260.234663 289.786739 
C 262.467532 292.019608 265.496378 293.274197 268.654131 293.274197 
z
" clip-path="url(#p7d0ccdc712)" style="fill: #35b779; stroke: #35b779"/>
    <path d="M 190.339341 459.379788 
C 193.310813 459.379788 196.160981 458.19921 198.262129 456.098062 
C 200.363277 453.996914 201.543855 451.146746 201.543855 448.175275 
C 201.543855 445.203803 200.363277 442.353635 198.262129 440.252487 
C 196.160981 438.151339 193.310813 436.970761 190.339341 436.970761 
C 187.367869 436.970761 184.517702 438.151339 182.416554 440.252487 
C 180.315406 442.353635 179.134828 445.203803 179.134828 448.175275 
C 179.134828 451.146746 180.315406 453.996914 182.416554 456.098062 
C 184.517702 458.19921 187.367869 459.379788 190.339341 459.379788 
z
" clip-path="url(#p7d0ccdc712)" style="fill: #fde725; stroke: #fde725"/>
    <path d="M 115.101983 313.044328 
C 116.366289 313.044328 117.578983 312.542014 118.472982 311.648014 
C 119.366982 310.754015 119.869296 309.541321 119.869296 308.277015 
C 119.869296 307.012709 119.366982 305.800015 118.472982 304.906016 
C 117.578983 304.012016 116.366289 303.509702 115.101983 303.509702 
C 113.837677 303.509702 112.624983 304.012016 111.730983 304.906016 
C 110.836984 305.800015 110.33467 307.012709 110.33467 308.277015 
C 110.33467 309.541321 110.836984 310.754015 111.730983 311.648014 
C 112.624983 312.542014 113.837677 313.044328 115.101983 313.044328 
z
" clip-path="url(#p7d0ccdc712)" style="fill: #31688e; stroke: #31688e"/>
    <path d="M 216.536995 256.723563 
C 216.536995 256.723563 216.536995 256.723563 216.536995 256.723563 
C 216.536995 256.723563 216.536995 256.723563 216.536995 256.723563 
C 216.536995 256.723563 216.536995 256.723563 216.536995 256.723563 
C 216.536995 256.723563 216.536995 256.723563 216.536995 256.723563 
C 216.536995 256.723563 216.536995 256.723563 216.536995 256.723563 
C 216.536995 256.723563 216.536995 256.723563 216.536995 256.723563 
C 216.536995 256.723563 216.536995 256.723563 216.536995 256.723563 
C 216.536995 256.723563 216.536995 256.723563 216.536995 256.723563 
z
" clip-path="url(#p7d0ccdc712)" style="fill: #440154; stroke: #440154"/>
    <path d="M 364.45428 236.522877 
C 367.438532 236.522877 370.300959 235.337221 372.411144 233.227036 
C 374.521329 231.116851 375.706985 228.254424 375.706985 225.270172 
C 375.706985 222.28592 374.521329 219.423493 372.411144 217.313308 
C 370.300959 215.203123 367.438532 214.017467 364.45428 214.017467 
C 361.470027 214.017467 358.6076 215.203123 356.497415 217.313308 
C 354.38723 219.423493 353.201574 222.28592 353.201574 225.270172 
C 353.201574 228.254424 354.38723 231.116851 356.497415 233.227036 
C 358.6076 235.337221 361.470027 236.522877 364.45428 236.522877 
z
" clip-path="url(#p7d0ccdc712)" style="fill: #31688e; stroke: #31688e"/>
    <path d="M 211.556495 483.463903 
C 211.556495 483.463903 211.556495 483.463903 211.556495 483.463903 
C 211.556495 483.463903 211.556495 483.463903 211.556495 483.463903 
C 211.556495 483.463903 211.556495 483.463903 211.556495 483.463903 
C 211.556495 483.463903 211.556495 483.463903 211.556495 483.463903 
C 211.556495 483.463903 211.556495 483.463903 211.556495 483.463903 
C 211.556495 483.463903 211.556495 483.463903 211.556495 483.463903 
C 211.556495 483.463903 211.556495 483.463903 211.556495 483.463903 
C 211.556495 483.463903 211.556495 483.463903 211.556495 483.463903 
z
" clip-path="url(#p7d0ccdc712)" style="fill: #440154; stroke: #440154"/>
    <path d="M 246.618246 451.480372 
C 246.618246 451.480372 246.618246 451.480372 246.618246 451.480372 
C 246.618246 451.480372 246.618246 451.480372 246.618246 451.480372 
C 246.618246 451.480372 246.618246 451.480372 246.618246 451.480372 
C 246.618246 451.480372 246.618246 451.480372 246.618246 451.480372 
C 246.618246 451.480372 246.618246 451.480372 246.618246 451.480372 
C 246.618246 451.480372 246.618246 451.480372 246.618246 451.480372 
C 246.618246 451.480372 246.618246 451.480372 246.618246 451.480372 
C 246.618246 451.480372 246.618246 451.480372 246.618246 451.480372 
z
" clip-path="url(#p7d0ccdc712)" style="fill: #440154; stroke: #440154"/>
    <path d="M 172.187226 548.396196 
C 174.528266 548.396196 176.773738 547.466091 178.429104 545.810726 
C 180.084469 544.15536 181.014574 541.909888 181.014574 539.568848 
C 181.014574 537.227808 180.084469 534.982335 178.429104 533.32697 
C 176.773738 531.671605 174.528266 530.7415 172.187226 530.7415 
C 169.846186 530.7415 167.600713 531.671605 165.945348 533.32697 
C 164.289983 534.982335 163.359877 537.227808 163.359877 539.568848 
C 163.359877 541.909888 164.289983 544.15536 165.945348 545.810726 
C 167.600713 547.466091 169.846186 548.396196 172.187226 548.396196 
z
" clip-path="url(#p7d0ccdc712)" style="fill: #35b779; stroke: #35b779"/>
    <path d="M 465.410619 183.320042 
C 468.394872 183.320042 471.257298 182.134386 473.367483 180.024201 
C 475.477669 177.914016 476.663325 175.051589 476.663325 172.067337 
C 476.663325 169.083084 475.477669 166.220658 473.367483 164.110473 
C 471.257298 162.000288 468.394872 160.814631 465.410619 160.814631 
C 462.426367 160.814631 459.56394 162.000288 457.453755 164.110473 
C 455.34357 166.220658 454.157914 169.083084 454.157914 172.067337 
C 454.157914 175.051589 455.34357 177.914016 457.453755 180.024201 
C 459.56394 182.134386 462.426367 183.320042 465.410619 183.320042 
z
" clip-path="url(#p7d0ccdc712)" style="fill: #fde725; stroke: #fde725"/>
    <path d="M 62.479339 265.31488 
C 62.479339 265.31488 62.479339 265.31488 62.479339 265.31488 
C 62.479339 265.31488 62.479339 265.31488 62.479339 265.31488 
C 62.479339 265.31488 62.479339 265.31488 62.479339 265.31488 
C 62.479339 265.31488 62.479339 265.31488 62.479339 265.31488 
C 62.479339 265.31488 62.479339 265.31488 62.479339 265.31488 
C 62.479339 265.31488 62.479339 265.31488 62.479339 265.31488 
C 62.479339 265.31488 62.479339 265.31488 62.479339 265.31488 
C 62.479339 265.31488 62.479339 265.31488 62.479339 265.31488 
z
" clip-path="url(#p7d0ccdc712)" style="fill: #440154; stroke: #440154"/>
    <path d="M 177.687941 658.256274 
C 177.883028 658.256274 178.070151 658.178765 178.208098 658.040818 
C 178.346045 657.902871 178.423554 657.715748 178.423554 657.520661 
C 178.423554 657.325574 178.346045 657.138452 178.208098 657.000505 
C 178.070151 656.862558 177.883028 656.785049 177.687941 656.785049 
C 177.492854 656.785049 177.305732 656.862558 177.167785 657.000505 
C 177.029838 657.138452 176.952329 657.325574 176.952329 657.520661 
C 176.952329 657.715748 177.029838 657.902871 177.167785 658.040818 
C 177.305732 658.178765 177.492854 658.256274 177.687941 658.256274 
z
" clip-path="url(#p7d0ccdc712)" style="fill: #31688e; stroke: #31688e"/>
    <path d="M 128.784686 654.503319 
C 128.979773 654.503319 129.166896 654.42581 129.304843 654.287863 
C 129.44279 654.149916 129.520299 653.962793 129.520299 653.767706 
C 129.520299 653.57262 129.44279 653.385497 129.304843 653.24755 
C 129.166896 653.109603 128.979773 653.032094 128.784686 653.032094 
C 128.5896 653.032094 128.402477 653.109603 128.26453 653.24755 
C 128.126583 653.385497 128.049074 653.57262 128.049074 653.767706 
C 128.049074 653.962793 128.126583 654.149916 128.26453 654.287863 
C 128.402477 654.42581 128.5896 654.503319 128.784686 654.503319 
z
" clip-path="url(#p7d0ccdc712)" style="fill: #31688e; stroke: #31688e"/>
    <path d="M 182.744945 607.564529 
C 183.963261 607.564529 185.131841 607.080487 185.993321 606.219008 
C 186.8548 605.357528 187.338842 604.188947 187.338842 602.970631 
C 187.338842 601.752315 186.8548 600.583735 185.993321 599.722255 
C 185.131841 598.860776 183.963261 598.376734 182.744945 598.376734 
C 181.526629 598.376734 180.358048 598.860776 179.496568 599.722255 
C 178.635089 600.583735 178.151047 601.752315 178.151047 602.970631 
C 178.151047 604.188947 178.635089 605.357528 179.496568 606.219008 
C 180.358048 607.080487 181.526629 607.564529 182.744945 607.564529 
z
" clip-path="url(#p7d0ccdc712)" style="fill: #35b779; stroke: #35b779"/>
    <path d="M 141.029712 604.753604 
C 142.248028 604.753604 143.416609 604.269562 144.278088 603.408082 
C 145.139568 602.546603 145.62361 601.378022 145.62361 600.159706 
C 145.62361 598.94139 145.139568 597.772809 144.278088 596.91133 
C 143.416609 596.04985 142.248028 595.565808 141.029712 595.565808 
C 139.811396 595.565808 138.642815 596.04985 137.781336 596.91133 
C 136.919856 597.772809 136.435814 598.94139 136.435814 600.159706 
C 136.435814 601.378022 136.919856 602.546603 137.781336 603.408082 
C 138.642815 604.269562 139.811396 604.753604 141.029712 604.753604 
z
" clip-path="url(#p7d0ccdc712)" style="fill: #35b779; stroke: #35b779"/>
    <path d="M 657.520661 147.017239 
C 657.839236 147.017239 658.144806 146.890667 658.370073 146.665401 
C 658.59534 146.440134 658.721911 146.134564 658.721911 145.815989 
C 658.721911 145.497413 658.59534 145.191843 658.370073 144.966577 
C 658.144806 144.74131 657.839236 144.614739 657.520661 144.614739 
C 657.202086 144.614739 656.896516 144.74131 656.671249 144.966577 
C 656.445982 145.191843 656.319411 145.497413 656.319411 145.815989 
C 656.319411 146.134564 656.445982 146.440134 656.671249 146.665401 
C 656.896516 146.890667 657.202086 147.017239 657.520661 147.017239 
z
" clip-path="url(#p7d0ccdc712)" style="fill: #31688e; stroke: #31688e"/>
    <path d="M 619.693877 111.84366 
C 620.738396 111.84366 621.740275 111.428668 622.478861 110.690082 
C 623.217447 109.951496 623.632439 108.949617 623.632439 107.905098 
C 623.632439 106.86058 623.217447 105.858701 622.478861 105.120115 
C 621.740275 104.381529 620.738396 103.966537 619.693877 103.966537 
C 618.649359 103.966537 617.64748 104.381529 616.908894 105.120115 
C 616.170308 105.858701 615.755316 106.86058 615.755316 107.905098 
C 615.755316 108.949617 616.170308 109.951496 616.908894 110.690082 
C 617.64748 111.428668 618.649359 111.84366 619.693877 111.84366 
z
" clip-path="url(#p7d0ccdc712)" style="fill: #35b779; stroke: #35b779"/>
    <path d="M 598.283797 173.383594 
C 599.328315 173.383594 600.330194 172.968603 601.06878 172.230016 
C 601.807366 171.49143 602.222358 170.489552 602.222358 169.445033 
C 602.222358 168.400514 601.807366 167.398636 601.06878 166.660049 
C 600.330194 165.921463 599.328315 165.506472 598.283797 165.506472 
C 597.239278 165.506472 596.237399 165.921463 595.498813 166.660049 
C 594.760227 167.398636 594.345235 168.400514 594.345235 169.445033 
C 594.345235 170.489552 594.760227 171.49143 595.498813 172.230016 
C 596.237399 172.968603 597.239278 173.383594 598.283797 173.383594 
z
" clip-path="url(#p7d0ccdc712)" style="fill: #35b779; stroke: #35b779"/>
    <path d="M 600.082381 63.680589 
C 600.400956 63.680589 600.706526 63.554018 600.931793 63.328751 
C 601.157059 63.103484 601.283631 62.797914 601.283631 62.479339 
C 601.283631 62.160764 601.157059 61.855194 600.931793 61.629927 
C 600.706526 61.40466 600.400956 61.278089 600.082381 61.278089 
C 599.763805 61.278089 599.458235 61.40466 599.232969 61.629927 
C 599.007702 61.855194 598.881131 62.160764 598.881131 62.479339 
C 598.881131 62.797914 599.007702 63.103484 599.232969 63.328751 
C 599.458235 63.554018 599.763805 63.680589 600.082381 63.680589 
z
" clip-path="url(#p7d0ccdc712)" style="fill: #31688e; stroke: #31688e"/>
    <path d="M 550.056721 143.446217 
C 552.145758 143.446217 554.149515 142.616233 555.626687 141.139061 
C 557.10386 139.661888 557.933843 137.658131 557.933843 135.569094 
C 557.933843 133.480056 557.10386 131.476299 555.626687 129.999127 
C 554.149515 128.521954 552.145758 127.691971 550.056721 127.691971 
C 547.967683 127.691971 545.963926 128.521954 544.486754 129.999127 
C 543.009581 131.476299 542.179598 133.480056 542.179598 135.569094 
C 542.179598 137.658131 543.009581 139.661888 544.486754 141.139061 
C 545.963926 142.616233 547.967683 143.446217 550.056721 143.446217 
z
" clip-path="url(#p7d0ccdc712)" style="fill: #fde725; stroke: #fde725"/>
    <path d="M 539.728339 89.173741 
C 540.772858 89.173741 541.774736 88.75875 542.513322 88.020164 
C 543.251909 87.281577 543.6669 86.279699 543.6669 85.23518 
C 543.6669 84.190661 543.251909 83.188783 542.513322 82.450197 
C 541.774736 81.71161 540.772858 81.296619 539.728339 81.296619 
C 538.68382 81.296619 537.681942 81.71161 536.943355 82.450197 
C 536.204769 83.188783 535.789777 84.190661 535.789777 85.23518 
C 535.789777 86.279699 536.204769 87.281577 536.943355 88.020164 
C 537.681942 88.75875 538.68382 89.173741 539.728339 89.173741 
z
" clip-path="url(#p7d0ccdc712)" style="fill: #35b779; stroke: #35b779"/>
    <path d="M 534.781073 193.843957 
C 535.775824 193.843957 536.729966 193.448739 537.433361 192.745344 
C 538.136756 192.041949 538.531975 191.087806 538.531975 190.093056 
C 538.531975 189.098305 538.136756 188.144163 537.433361 187.440767 
C 536.729966 186.737372 535.775824 186.342154 534.781073 186.342154 
C 533.786322 186.342154 532.83218 186.737372 532.128785 187.440767 
C 531.42539 188.144163 531.030171 189.098305 531.030171 190.093056 
C 531.030171 191.087806 531.42539 192.041949 532.128785 192.745344 
C 532.83218 193.448739 533.786322 193.843957 534.781073 193.843957 
z
" clip-path="url(#p7d0ccdc712)" style="fill: #31688e; stroke: #31688e"/>
    <path d="M 480.430442 116.955102 
C 481.425192 116.955102 482.379335 116.559884 483.08273 115.856488 
C 483.786125 115.153093 484.181343 114.198951 484.181343 113.2042 
C 484.181343 112.20945 483.786125 111.255307 483.08273 110.551912 
C 482.379335 109.848517 481.425192 109.453299 480.430442 109.453299 
C 479.435691 109.453299 478.481549 109.848517 477.778154 110.551912 
C 477.074759 111.255307 476.67954 112.20945 476.67954 113.2042 
C 476.67954 114.198951 477.074759 115.153093 477.778154 115.856488 
C 478.481549 116.559884 479.435691 116.955102 480.430442 116.955102 
z
" clip-path="url(#p7d0ccdc712)" style="fill: #31688e; stroke: #31688e"/>
   </g>
  </g>
 </g>
 <defs>
  <clipPath id="p7d0ccdc712">
   <rect x="0" y="0" width="720" height="720"/>
  </clipPath>
 </defs>
</svg>
