<?xml version="1.0" encoding="utf-8" standalone="no"?>
<!DOCTYPE svg PUBLIC "-//W3C//DTD SVG 1.1//EN"
  "http://www.w3.org/Graphics/SVG/1.1/DTD/svg11.dtd">
<svg xmlns:xlink="http://www.w3.org/1999/xlink" width="720pt" height="720pt" viewBox="0 0 720 720" xmlns="http://www.w3.org/2000/svg" version="1.1">
 <metadata>
  <rdf:RDF xmlns:dc="http://purl.org/dc/elements/1.1/" xmlns:cc="http://creativecommons.org/ns#" xmlns:rdf="http://www.w3.org/1999/02/22-rdf-syntax-ns#">
   <cc:Work>
    <dc:type rdf:resource="http://purl.org/dc/dcmitype/StillImage"/>
    <dc:date>2024-09-26T21:33:35.489054</dc:date>
    <dc:format>image/svg+xml</dc:format>
    <dc:creator>
     <cc:Agent>
      <dc:title>Matplotlib v3.5.3, https://matplotlib.org/</dc:title>
     </cc:Agent>
    </dc:creator>
   </cc:Work>
  </rdf:RDF>
 </metadata>
 <defs>
  <style type="text/css">*{stroke-linejoin: round; stroke-linecap: butt}</style>
 </defs>
 <g id="figure_1">
  <g id="patch_1">
   <path d="M 0 720 
L 720 720 
L 720 0 
L 0 0 
z
" style="fill: #ffffff"/>
  </g>
  <g id="axes_1">
   <g id="LineCollection_1">
    <path d="M 517.746096 479.0699 
L 568.640834 422.032422 
" clip-path="url(#p735b475d59)" style="fill: none; stroke: #000000"/>
    <path d="M 517.746096 479.0699 
L 416.201943 572.377914 
" clip-path="url(#p735b475d59)" style="fill: none; stroke: #000000"/>
    <path d="M 517.746096 479.0699 
L 592.341459 393.127067 
" clip-path="url(#p735b475d59)" style="fill: none; stroke: #000000"/>
    <path d="M 568.640834 422.032422 
L 657.520661 472.669405 
" clip-path="url(#p735b475d59)" style="fill: none; stroke: #000000"/>
    <path d="M 568.640834 422.032422 
L 510.142433 325.968539 
" clip-path="url(#p735b475d59)" style="fill: none; stroke: #000000"/>
    <path d="M 416.201943 572.377914 
L 483.138623 618.2999 
" clip-path="url(#p735b475d59)" style="fill: none; stroke: #000000"/>
    <path d="M 416.201943 572.377914 
L 416.068842 636.818031 
" clip-path="url(#p735b475d59)" style="fill: none; stroke: #000000"/>
    <path d="M 416.201943 572.377914 
L 266.043151 603.979487 
" clip-path="url(#p735b475d59)" style="fill: none; stroke: #000000"/>
    <path d="M 592.341459 393.127067 
L 623.84677 309.596939 
" clip-path="url(#p735b475d59)" style="fill: none; stroke: #000000"/>
    <path d="M 510.142433 325.968539 
L 444.80097 232.470044 
" clip-path="url(#p735b475d59)" style="fill: none; stroke: #000000"/>
    <path d="M 266.043151 603.979487 
L 155.857774 607.335232 
" clip-path="url(#p735b475d59)" style="fill: none; stroke: #000000"/>
    <path d="M 266.043151 603.979487 
L 169.673798 642.597239 
" clip-path="url(#p735b475d59)" style="fill: none; stroke: #000000"/>
    <path d="M 444.80097 232.470044 
L 375.422791 162.54818 
" clip-path="url(#p735b475d59)" style="fill: none; stroke: #000000"/>
    <path d="M 444.80097 232.470044 
L 352.261914 226.120052 
" clip-path="url(#p735b475d59)" style="fill: none; stroke: #000000"/>
    <path d="M 444.80097 232.470044 
L 475.638866 161.768614 
" clip-path="url(#p735b475d59)" style="fill: none; stroke: #000000"/>
    <path d="M 78.121718 657.520661 
L 62.479339 616.824202 
" clip-path="url(#p735b475d59)" style="fill: none; stroke: #000000"/>
    <path d="M 78.121718 657.520661 
L 169.673798 642.597239 
" clip-path="url(#p735b475d59)" style="fill: none; stroke: #000000"/>
    <path d="M 62.479339 616.824202 
L 155.857774 607.335232 
" clip-path="url(#p735b475d59)" style="fill: none; stroke: #000000"/>
    <path d="M 169.673798 642.597239 
L 155.857774 607.335232 
" clip-path="url(#p735b475d59)" style="fill: none; stroke: #000000"/>
    <path d="M 241.675015 136.321705 
L 314.141255 107.295768 
" clip-path="url(#p735b475d59)" style="fill: none; stroke: #000000"/>
    <path d="M 241.675015 136.321705 
L 293.720836 182.575804 
" clip-path="url(#p735b475d59)" style="fill: none; stroke: #000000"/>
    <path d="M 314.141255 107.295768 
L 370.000634 62.479339 
" clip-path="url(#p735b475d59)" style="fill: none; stroke: #000000"/>
    <path d="M 314.141255 107.295768 
L 375.422791 162.54818 
" clip-path="url(#p735b475d59)" style="fill: none; stroke: #000000"/>
    <path d="M 293.720836 182.575804 
L 375.422791 162.54818 
" clip-path="url(#p735b475d59)" style="fill: none; stroke: #000000"/>
    <path d="M 293.720836 182.575804 
L 352.261914 226.120052 
" clip-path="url(#p735b475d59)" style="fill: none; stroke: #000000"/>
    <path d="M 370.000634 62.479339 
L 425.354115 109.824303 
" clip-path="url(#p735b475d59)" style="fill: none; stroke: #000000"/>
    <path d="M 375.422791 162.54818 
L 425.354115 109.824303 
" clip-path="url(#p735b475d59)" style="fill: none; stroke: #000000"/>
    <path d="M 425.354115 109.824303 
L 475.638866 161.768614 
" clip-path="url(#p735b475d59)" style="fill: none; stroke: #000000"/>
   </g>
   <g id="PathCollection_1">
    <path d="M 517.746096 482.468607 
C 518.647444 482.468607 519.511996 482.110498 520.149345 481.473149 
C 520.786694 480.8358 521.144803 479.971248 521.144803 479.0699 
C 521.144803 478.168553 520.786694 477.304001 520.149345 476.666652 
C 519.511996 476.029303 518.647444 475.671194 517.746096 475.671194 
C 516.844749 475.671194 515.980197 476.029303 515.342848 476.666652 
C 514.705499 477.304001 514.34739 478.168553 514.34739 479.0699 
C 514.34739 479.971248 514.705499 480.8358 515.342848 481.473149 
C 515.980197 482.110498 516.844749 482.468607 517.746096 482.468607 
z
" clip-path="url(#p735b475d59)" style="fill: #35b779; stroke: #35b779"/>
    <path d="M 568.640834 426.62433 
C 569.858622 426.62433 571.026697 426.140498 571.887803 425.279391 
C 572.74891 424.418285 573.232742 423.25021 573.232742 422.032422 
C 573.232742 420.814634 572.74891 419.646559 571.887803 418.785453 
C 571.026697 417.924347 569.858622 417.440514 568.640834 417.440514 
C 567.423046 417.440514 566.254971 417.924347 565.393865 418.785453 
C 564.532759 419.646559 564.048926 420.814634 564.048926 422.032422 
C 564.048926 423.25021 564.532759 424.418285 565.393865 425.279391 
C 566.254971 426.140498 567.423046 426.62433 568.640834 426.62433 
z
" clip-path="url(#p735b475d59)" style="fill: #35b779; stroke: #35b779"/>
    <path d="M 416.201943 575.161116 
C 416.940056 575.161116 417.648038 574.86786 418.169963 574.345935 
C 418.691889 573.82401 418.985144 573.116028 418.985144 572.377914 
C 418.985144 571.6398 418.691889 570.931818 418.169963 570.409893 
C 417.648038 569.887968 416.940056 569.594712 416.201943 569.594712 
C 415.463829 569.594712 414.755847 569.887968 414.233922 570.409893 
C 413.711996 570.931818 413.418741 571.6398 413.418741 572.377914 
C 413.418741 573.116028 413.711996 573.82401 414.233922 574.345935 
C 414.755847 574.86786 415.463829 575.161116 416.201943 575.161116 
z
" clip-path="url(#p735b475d59)" style="fill: #fde725; stroke: #fde725"/>
    <path d="M 592.341459 395.258307 
C 592.906671 395.258307 593.448809 395.033747 593.848474 394.634082 
C 594.248139 394.234417 594.4727 393.692279 594.4727 393.127067 
C 594.4727 392.561855 594.248139 392.019717 593.848474 391.620052 
C 593.448809 391.220388 592.906671 390.995827 592.341459 390.995827 
C 591.776248 390.995827 591.23411 391.220388 590.834445 391.620052 
C 590.43478 392.019717 590.210219 392.561855 590.210219 393.127067 
C 590.210219 393.692279 590.43478 394.234417 590.834445 394.634082 
C 591.23411 395.033747 591.776248 395.258307 592.341459 395.258307 
z
" clip-path="url(#p735b475d59)" style="fill: #31688e; stroke: #31688e"/>
    <path d="M 657.520661 475.370854 
C 658.237094 475.370854 658.92428 475.086213 659.430874 474.579618 
C 659.937468 474.073024 660.22211 473.385838 660.22211 472.669405 
C 660.22211 471.952973 659.937468 471.265787 659.430874 470.759192 
C 658.92428 470.252598 658.237094 469.967956 657.520661 469.967956 
C 656.804228 469.967956 656.117043 470.252598 655.610448 470.759192 
C 655.103854 471.265787 654.819212 471.952973 654.819212 472.669405 
C 654.819212 473.385838 655.103854 474.073024 655.610448 474.579618 
C 656.117043 475.086213 656.804228 475.370854 657.520661 475.370854 
z
" clip-path="url(#p735b475d59)" style="fill: #440154; stroke: #440154"/>
    <path d="M 510.142433 332.454965 
C 511.862654 332.454965 513.51265 331.771514 514.729029 330.555134 
C 515.945409 329.338755 516.628859 327.688759 516.628859 325.968539 
C 516.628859 324.248318 515.945409 322.598322 514.729029 321.381943 
C 513.51265 320.165563 511.862654 319.482112 510.142433 319.482112 
C 508.422213 319.482112 506.772217 320.165563 505.555838 321.381943 
C 504.339458 322.598322 503.656007 324.248318 503.656007 325.968539 
C 503.656007 327.688759 504.339458 329.338755 505.555838 330.555134 
C 506.772217 331.771514 508.422213 332.454965 510.142433 332.454965 
z
" clip-path="url(#p735b475d59)" style="fill: #31688e; stroke: #31688e"/>
    <path d="M 483.138623 619.937353 
C 483.57288 619.937353 483.98941 619.764821 484.296477 619.457754 
C 484.603544 619.150688 484.776076 618.734158 484.776076 618.2999 
C 484.776076 617.865642 484.603544 617.449112 484.296477 617.142046 
C 483.98941 616.834979 483.57288 616.662447 483.138623 616.662447 
C 482.704365 616.662447 482.287835 616.834979 481.980768 617.142046 
C 481.673702 617.449112 481.501169 617.865642 481.501169 618.2999 
C 481.501169 618.734158 481.673702 619.150688 481.980768 619.457754 
C 482.287835 619.764821 482.704365 619.937353 483.138623 619.937353 
z
" clip-path="url(#p735b475d59)" style="fill: #440154; stroke: #440154"/>
    <path d="M 416.068842 638.455485 
C 416.5031 638.455485 416.91963 638.282952 417.226697 637.975886 
C 417.533763 637.668819 417.706296 637.252289 417.706296 636.818031 
C 417.706296 636.383774 417.533763 635.967244 417.226697 635.660177 
C 416.91963 635.35311 416.5031 635.180578 416.068842 635.180578 
C 415.634585 635.180578 415.218055 635.35311 414.910988 635.660177 
C 414.603922 635.967244 414.431389 636.383774 414.431389 636.818031 
C 414.431389 637.252289 414.603922 637.668819 414.910988 637.975886 
C 415.218055 638.282952 415.634585 638.455485 416.068842 638.455485 
z
" clip-path="url(#p735b475d59)" style="fill: #440154; stroke: #440154"/>
    <path d="M 266.043151 606.317326 
C 266.663153 606.317326 267.257845 606.070997 267.696253 605.632589 
C 268.134661 605.194181 268.38099 604.599489 268.38099 603.979487 
C 268.38099 603.359484 268.134661 602.764792 267.696253 602.326384 
C 267.257845 601.887976 266.663153 601.641647 266.043151 601.641647 
C 265.423149 601.641647 264.828456 601.887976 264.390049 602.326384 
C 263.951641 602.764792 263.705311 603.359484 263.705311 603.979487 
C 263.705311 604.599489 263.951641 605.194181 264.390049 605.632589 
C 264.828456 606.070997 265.423149 606.317326 266.043151 606.317326 
z
" clip-path="url(#p735b475d59)" style="fill: #35b779; stroke: #35b779"/>
    <path d="M 444.80097 242.493978 
C 447.459348 242.493978 450.009204 241.437793 451.888961 239.558036 
C 453.768719 237.678278 454.824904 235.128423 454.824904 232.470044 
C 454.824904 229.811666 453.768719 227.26181 451.888961 225.382053 
C 450.009204 223.502295 447.459348 222.446111 444.80097 222.446111 
C 442.142592 222.446111 439.592736 223.502295 437.712978 225.382053 
C 435.833221 227.26181 434.777036 229.811666 434.777036 232.470044 
C 434.777036 235.128423 435.833221 237.678278 437.712978 239.558036 
C 439.592736 241.437793 442.142592 242.493978 444.80097 242.493978 
z
" clip-path="url(#p735b475d59)" style="fill: #fde725; stroke: #fde725"/>
    <path d="M 623.84677 310.850784 
C 624.179294 310.850784 624.498243 310.718671 624.733372 310.483541 
C 624.968502 310.248412 625.100615 309.929463 625.100615 309.596939 
C 625.100615 309.264416 624.968502 308.945467 624.733372 308.710337 
C 624.498243 308.475208 624.179294 308.343095 623.84677 308.343095 
C 623.514247 308.343095 623.195298 308.475208 622.960169 308.710337 
C 622.725039 308.945467 622.592926 309.264416 622.592926 309.596939 
C 622.592926 309.929463 622.725039 310.248412 622.960169 310.483541 
C 623.195298 310.718671 623.514247 310.850784 623.84677 310.850784 
z
" clip-path="url(#p735b475d59)" style="fill: #440154; stroke: #440154"/>
    <path d="M 78.121718 658.979867 
C 78.508703 658.979867 78.879891 658.826116 79.153532 658.552475 
C 79.427172 658.278835 79.580923 657.907647 79.580923 657.520661 
C 79.580923 657.133675 79.427172 656.762487 79.153532 656.488847 
C 78.879891 656.215206 78.508703 656.061455 78.121718 656.061455 
C 77.734732 656.061455 77.363544 656.215206 77.089903 656.488847 
C 76.816263 656.762487 76.662512 657.133675 76.662512 657.520661 
C 76.662512 657.907647 76.816263 658.278835 77.089903 658.552475 
C 77.363544 658.826116 77.734732 658.979867 78.121718 658.979867 
z
" clip-path="url(#p735b475d59)" style="fill: #31688e; stroke: #31688e"/>
    <path d="M 62.479339 618.283407 
C 62.866325 618.283407 63.237513 618.129656 63.511153 617.856016 
C 63.784794 617.582376 63.938545 617.211187 63.938545 616.824202 
C 63.938545 616.437216 63.784794 616.066028 63.511153 615.792387 
C 63.237513 615.518747 62.866325 615.364996 62.479339 615.364996 
C 62.092353 615.364996 61.721165 615.518747 61.447525 615.792387 
C 61.173884 616.066028 61.020133 616.437216 61.020133 616.824202 
C 61.020133 617.211187 61.173884 617.582376 61.447525 617.856016 
C 61.721165 618.129656 62.092353 618.283407 62.479339 618.283407 
z
" clip-path="url(#p735b475d59)" style="fill: #31688e; stroke: #31688e"/>
    <path d="M 169.673798 644.602549 
C 170.205612 644.602549 170.715716 644.391257 171.091766 644.015208 
C 171.467816 643.639158 171.679108 643.129054 171.679108 642.597239 
C 171.679108 642.065425 171.467816 641.555321 171.091766 641.179271 
C 170.715716 640.803221 170.205612 640.591929 169.673798 640.591929 
C 169.141983 640.591929 168.631879 640.803221 168.255829 641.179271 
C 167.87978 641.555321 167.668488 642.065425 167.668488 642.597239 
C 167.668488 643.129054 167.87978 643.639158 168.255829 644.015208 
C 168.631879 644.391257 169.141983 644.602549 169.673798 644.602549 
z
" clip-path="url(#p735b475d59)" style="fill: #35b779; stroke: #35b779"/>
    <path d="M 155.857774 609.340542 
C 156.389589 609.340542 156.899693 609.12925 157.275743 608.753201 
C 157.651792 608.377151 157.863085 607.867047 157.863085 607.335232 
C 157.863085 606.803418 157.651792 606.293313 157.275743 605.917264 
C 156.899693 605.541214 156.389589 605.329922 155.857774 605.329922 
C 155.32596 605.329922 154.815856 605.541214 154.439806 605.917264 
C 154.063757 606.293313 153.852464 606.803418 153.852464 607.335232 
C 153.852464 607.867047 154.063757 608.377151 154.439806 608.753201 
C 154.815856 609.12925 155.32596 609.340542 155.857774 609.340542 
z
" clip-path="url(#p735b475d59)" style="fill: #35b779; stroke: #35b779"/>
    <path d="M 241.675015 143.877525 
C 243.678841 143.877525 245.600866 143.081396 247.017786 141.664477 
C 248.434705 140.247557 249.230834 138.325532 249.230834 136.321705 
C 249.230834 134.317878 248.434705 132.395853 247.017786 130.978934 
C 245.600866 129.562014 243.678841 128.765886 241.675015 128.765886 
C 239.671188 128.765886 237.749163 129.562014 236.332243 130.978934 
C 234.915324 132.395853 234.119195 134.317878 234.119195 136.321705 
C 234.119195 138.325532 234.915324 140.247557 236.332243 141.664477 
C 237.749163 143.081396 239.671188 143.877525 241.675015 143.877525 
z
" clip-path="url(#p735b475d59)" style="fill: #31688e; stroke: #31688e"/>
    <path d="M 314.141255 116.314072 
C 316.532937 116.314072 318.826985 115.363847 320.518159 113.672672 
C 322.209334 111.981497 323.15956 109.68745 323.15956 107.295768 
C 323.15956 104.904085 322.209334 102.610038 320.518159 100.918863 
C 318.826985 99.227688 316.532937 98.277463 314.141255 98.277463 
C 311.749573 98.277463 309.455525 99.227688 307.764351 100.918863 
C 306.073176 102.610038 305.12295 104.904085 305.12295 107.295768 
C 305.12295 109.68745 306.073176 111.981497 307.764351 113.672672 
C 309.455525 115.363847 311.749573 116.314072 314.141255 116.314072 
z
" clip-path="url(#p735b475d59)" style="fill: #35b779; stroke: #35b779"/>
    <path d="M 293.720836 191.720401 
C 296.146011 191.720401 298.472184 190.756868 300.187042 189.04201 
C 301.9019 187.327152 302.865433 185.000979 302.865433 182.575804 
C 302.865433 180.150629 301.9019 177.824455 300.187042 176.109597 
C 298.472184 174.394739 296.146011 173.431207 293.720836 173.431207 
C 291.29566 173.431207 288.969487 174.394739 287.254629 176.109597 
C 285.539771 177.824455 284.576239 180.150629 284.576239 182.575804 
C 284.576239 185.000979 285.539771 187.327152 287.254629 189.04201 
C 288.969487 190.756868 291.29566 191.720401 293.720836 191.720401 
z
" clip-path="url(#p735b475d59)" style="fill: #35b779; stroke: #35b779"/>
    <path d="M 370.000634 70.035159 
C 372.004461 70.035159 373.926486 69.23903 375.343406 67.82211 
C 376.760325 66.405191 377.556454 64.483166 377.556454 62.479339 
C 377.556454 60.475512 376.760325 58.553487 375.343406 57.136567 
C 373.926486 55.719648 372.004461 54.923519 370.000634 54.923519 
C 367.996807 54.923519 366.074782 55.719648 364.657863 57.136567 
C 363.240943 58.553487 362.444814 60.475512 362.444814 62.479339 
C 362.444814 64.483166 363.240943 66.405191 364.657863 67.82211 
C 366.074782 69.23903 367.996807 70.035159 370.000634 70.035159 
z
" clip-path="url(#p735b475d59)" style="fill: #31688e; stroke: #31688e"/>
    <path d="M 375.422791 173.53947 
C 378.337716 173.53947 381.133645 172.381359 383.194807 170.320196 
C 385.25597 168.259033 386.414082 165.463104 386.414082 162.54818 
C 386.414082 159.633256 385.25597 156.837327 383.194807 154.776164 
C 381.133645 152.715001 378.337716 151.55689 375.422791 151.55689 
C 372.507867 151.55689 369.711938 152.715001 367.650775 154.776164 
C 365.589613 156.837327 364.431501 159.633256 364.431501 162.54818 
C 364.431501 165.463104 365.589613 168.259033 367.650775 170.320196 
C 369.711938 172.381359 372.507867 173.53947 375.422791 173.53947 
z
" clip-path="url(#p735b475d59)" style="fill: #fde725; stroke: #fde725"/>
    <path d="M 425.354115 118.9689 
C 427.779291 118.9689 430.105464 118.005367 431.820322 116.290509 
C 433.53518 114.575651 434.498712 112.249478 434.498712 109.824303 
C 434.498712 107.399127 433.53518 105.072954 431.820322 103.358096 
C 430.105464 101.643238 427.779291 100.679706 425.354115 100.679706 
C 422.92894 100.679706 420.602767 101.643238 418.887909 103.358096 
C 417.173051 105.072954 416.209518 107.399127 416.209518 109.824303 
C 416.209518 112.249478 417.173051 114.575651 418.887909 116.290509 
C 420.602767 118.005367 422.92894 118.9689 425.354115 118.9689 
z
" clip-path="url(#p735b475d59)" style="fill: #35b779; stroke: #35b779"/>
    <path d="M 352.261914 234.102411 
C 354.37886 234.102411 356.409387 233.261339 357.906294 231.764432 
C 359.403201 230.267525 360.244273 228.236998 360.244273 226.120052 
C 360.244273 224.003106 359.403201 221.972579 357.906294 220.475672 
C 356.409387 218.978765 354.37886 218.137693 352.261914 218.137693 
C 350.144968 218.137693 348.114441 218.978765 346.617534 220.475672 
C 345.120627 221.972579 344.279555 224.003106 344.279555 226.120052 
C 344.279555 228.236998 345.120627 230.267525 346.617534 231.764432 
C 348.114441 233.261339 350.144968 234.102411 352.261914 234.102411 
z
" clip-path="url(#p735b475d59)" style="fill: #31688e; stroke: #31688e"/>
    <path d="M 475.638866 169.750973 
C 477.755812 169.750973 479.786338 168.909901 481.283246 167.412994 
C 482.780153 165.916087 483.621224 163.885561 483.621224 161.768614 
C 483.621224 159.651668 482.780153 157.621141 481.283246 156.124234 
C 479.786338 154.627327 477.755812 153.786256 475.638866 153.786256 
C 473.521919 153.786256 471.491393 154.627327 469.994485 156.124234 
C 468.497578 157.621141 467.656507 159.651668 467.656507 161.768614 
C 467.656507 163.885561 468.497578 165.916087 469.994485 167.412994 
C 471.491393 168.909901 473.521919 169.750973 475.638866 169.750973 
z
" clip-path="url(#p735b475d59)" style="fill: #31688e; stroke: #31688e"/>
   </g>
  </g>
 </g>
 <defs>
  <clipPath id="p735b475d59">
   <rect x="0" y="0" width="720" height="720"/>
  </clipPath>
 </defs>
</svg>
