<?xml version="1.0" encoding="utf-8" standalone="no"?>
<!DOCTYPE svg PUBLIC "-//W3C//DTD SVG 1.1//EN"
  "http://www.w3.org/Graphics/SVG/1.1/DTD/svg11.dtd">
<svg xmlns:xlink="http://www.w3.org/1999/xlink" width="720pt" height="720pt" viewBox="0 0 720 720" xmlns="http://www.w3.org/2000/svg" version="1.1">
 <metadata>
  <rdf:RDF xmlns:dc="http://purl.org/dc/elements/1.1/" xmlns:cc="http://creativecommons.org/ns#" xmlns:rdf="http://www.w3.org/1999/02/22-rdf-syntax-ns#">
   <cc:Work>
    <dc:type rdf:resource="http://purl.org/dc/dcmitype/StillImage"/>
    <dc:date>2024-09-26T21:33:42.555066</dc:date>
    <dc:format>image/svg+xml</dc:format>
    <dc:creator>
     <cc:Agent>
      <dc:title>Matplotlib v3.5.3, https://matplotlib.org/</dc:title>
     </cc:Agent>
    </dc:creator>
   </cc:Work>
  </rdf:RDF>
 </metadata>
 <defs>
  <style type="text/css">*{stroke-linejoin: round; stroke-linecap: butt}</style>
 </defs>
 <g id="figure_1">
  <g id="patch_1">
   <path d="M 0 720 
L 720 720 
L 720 0 
L 0 0 
z
" style="fill: #ffffff"/>
  </g>
  <g id="axes_1">
   <g id="LineCollection_1">
    <path d="M 465.903111 294.767393 
L 388.267977 191.055444 
" clip-path="url(#p376b2bd39f)" style="fill: none; stroke: #000000"/>
    <path d="M 465.903111 294.767393 
L 561.45004 373.807481 
" clip-path="url(#p376b2bd39f)" style="fill: none; stroke: #000000"/>
    <path d="M 465.903111 294.767393 
L 430.817814 364.989187 
" clip-path="url(#p376b2bd39f)" style="fill: none; stroke: #000000"/>
    <path d="M 388.267977 191.055444 
L 419.07681 123.231915 
" clip-path="url(#p376b2bd39f)" style="fill: none; stroke: #000000"/>
    <path d="M 388.267977 191.055444 
L 287.648179 135.788744 
" clip-path="url(#p376b2bd39f)" style="fill: none; stroke: #000000"/>
    <path d="M 561.45004 373.807481 
L 626.791366 373.621095 
" clip-path="url(#p376b2bd39f)" style="fill: none; stroke: #000000"/>
    <path d="M 561.45004 373.807481 
L 604.247949 316.085169 
" clip-path="url(#p376b2bd39f)" style="fill: none; stroke: #000000"/>
    <path d="M 561.45004 373.807481 
L 599.248087 494.532355 
" clip-path="url(#p376b2bd39f)" style="fill: none; stroke: #000000"/>
    <path d="M 430.817814 364.989187 
L 402.984534 427.96278 
" clip-path="url(#p376b2bd39f)" style="fill: none; stroke: #000000"/>
    <path d="M 287.648179 135.788744 
L 180.08871 104.304815 
" clip-path="url(#p376b2bd39f)" style="fill: none; stroke: #000000"/>
    <path d="M 599.248087 494.532355 
L 604.045901 583.160783 
" clip-path="url(#p376b2bd39f)" style="fill: none; stroke: #000000"/>
    <path d="M 599.248087 494.532355 
L 641.634484 573.50307 
" clip-path="url(#p376b2bd39f)" style="fill: none; stroke: #000000"/>
    <path d="M 180.08871 104.304815 
L 121.164261 153.861921 
" clip-path="url(#p376b2bd39f)" style="fill: none; stroke: #000000"/>
    <path d="M 180.08871 104.304815 
L 94.544173 94.436842 
" clip-path="url(#p376b2bd39f)" style="fill: none; stroke: #000000"/>
    <path d="M 180.08871 104.304815 
L 187.658831 62.479339 
" clip-path="url(#p376b2bd39f)" style="fill: none; stroke: #000000"/>
    <path d="M 657.520661 649.18216 
L 609.235631 657.520661 
" clip-path="url(#p376b2bd39f)" style="fill: none; stroke: #000000"/>
    <path d="M 657.520661 649.18216 
L 641.634484 573.50307 
" clip-path="url(#p376b2bd39f)" style="fill: none; stroke: #000000"/>
    <path d="M 609.235631 657.520661 
L 604.045901 583.160783 
" clip-path="url(#p376b2bd39f)" style="fill: none; stroke: #000000"/>
    <path d="M 641.634484 573.50307 
L 604.045901 583.160783 
" clip-path="url(#p376b2bd39f)" style="fill: none; stroke: #000000"/>
    <path d="M 75.78415 240.712147 
L 128.605946 226.847454 
" clip-path="url(#p376b2bd39f)" style="fill: none; stroke: #000000"/>
    <path d="M 75.78415 240.712147 
L 62.479339 161.607712 
" clip-path="url(#p376b2bd39f)" style="fill: none; stroke: #000000"/>
    <path d="M 128.605946 226.847454 
L 185.566428 209.402487 
" clip-path="url(#p376b2bd39f)" style="fill: none; stroke: #000000"/>
    <path d="M 128.605946 226.847454 
L 121.164261 153.861921 
" clip-path="url(#p376b2bd39f)" style="fill: none; stroke: #000000"/>
    <path d="M 62.479339 161.607712 
L 121.164261 153.861921 
" clip-path="url(#p376b2bd39f)" style="fill: none; stroke: #000000"/>
    <path d="M 62.479339 161.607712 
L 94.544173 94.436842 
" clip-path="url(#p376b2bd39f)" style="fill: none; stroke: #000000"/>
    <path d="M 185.566428 209.402487 
L 168.852473 139.328041 
" clip-path="url(#p376b2bd39f)" style="fill: none; stroke: #000000"/>
    <path d="M 121.164261 153.861921 
L 168.852473 139.328041 
" clip-path="url(#p376b2bd39f)" style="fill: none; stroke: #000000"/>
    <path d="M 168.852473 139.328041 
L 187.658831 62.479339 
" clip-path="url(#p376b2bd39f)" style="fill: none; stroke: #000000"/>
   </g>
   <g id="PathCollection_1">
    <path d="M 465.903111 294.767393 
C 465.903111 294.767393 465.903111 294.767393 465.903111 294.767393 
C 465.903111 294.767393 465.903111 294.767393 465.903111 294.767393 
C 465.903111 294.767393 465.903111 294.767393 465.903111 294.767393 
C 465.903111 294.767393 465.903111 294.767393 465.903111 294.767393 
C 465.903111 294.767393 465.903111 294.767393 465.903111 294.767393 
C 465.903111 294.767393 465.903111 294.767393 465.903111 294.767393 
C 465.903111 294.767393 465.903111 294.767393 465.903111 294.767393 
C 465.903111 294.767393 465.903111 294.767393 465.903111 294.767393 
z
" clip-path="url(#p376b2bd39f)" style="fill: #35b779; stroke: #35b779"/>
    <path d="M 388.267977 191.055444 
C 388.267977 191.055444 388.267977 191.055444 388.267977 191.055444 
C 388.267977 191.055444 388.267977 191.055444 388.267977 191.055444 
C 388.267977 191.055444 388.267977 191.055444 388.267977 191.055444 
C 388.267977 191.055444 388.267977 191.055444 388.267977 191.055444 
C 388.267977 191.055444 388.267977 191.055444 388.267977 191.055444 
C 388.267977 191.055444 388.267977 191.055444 388.267977 191.055444 
C 388.267977 191.055444 388.267977 191.055444 388.267977 191.055444 
C 388.267977 191.055444 388.267977 191.055444 388.267977 191.055444 
z
" clip-path="url(#p376b2bd39f)" style="fill: #35b779; stroke: #35b779"/>
    <path d="M 561.45004 373.807481 
C 561.45004 373.807481 561.45004 373.807481 561.45004 373.807481 
C 561.45004 373.807481 561.45004 373.807481 561.45004 373.807481 
C 561.45004 373.807481 561.45004 373.807481 561.45004 373.807481 
C 561.45004 373.807481 561.45004 373.807481 561.45004 373.807481 
C 561.45004 373.807481 561.45004 373.807481 561.45004 373.807481 
C 561.45004 373.807481 561.45004 373.807481 561.45004 373.807481 
C 561.45004 373.807481 561.45004 373.807481 561.45004 373.807481 
C 561.45004 373.807481 561.45004 373.807481 561.45004 373.807481 
z
" clip-path="url(#p376b2bd39f)" style="fill: #fde725; stroke: #fde725"/>
    <path d="M 430.817814 364.989187 
C 430.817814 364.989187 430.817814 364.989187 430.817814 364.989187 
C 430.817814 364.989187 430.817814 364.989187 430.817814 364.989187 
C 430.817814 364.989187 430.817814 364.989187 430.817814 364.989187 
C 430.817814 364.989187 430.817814 364.989187 430.817814 364.989187 
C 430.817814 364.989187 430.817814 364.989187 430.817814 364.989187 
C 430.817814 364.989187 430.817814 364.989187 430.817814 364.989187 
C 430.817814 364.989187 430.817814 364.989187 430.817814 364.989187 
C 430.817814 364.989187 430.817814 364.989187 430.817814 364.989187 
z
" clip-path="url(#p376b2bd39f)" style="fill: #31688e; stroke: #31688e"/>
    <path d="M 419.07681 123.231915 
C 419.07681 123.231915 419.07681 123.231915 419.07681 123.231915 
C 419.07681 123.231915 419.07681 123.231915 419.07681 123.231915 
C 419.07681 123.231915 419.07681 123.231915 419.07681 123.231915 
C 419.07681 123.231915 419.07681 123.231915 419.07681 123.231915 
C 419.07681 123.231915 419.07681 123.231915 419.07681 123.231915 
C 419.07681 123.231915 419.07681 123.231915 419.07681 123.231915 
C 419.07681 123.231915 419.07681 123.231915 419.07681 123.231915 
C 419.07681 123.231915 419.07681 123.231915 419.07681 123.231915 
z
" clip-path="url(#p376b2bd39f)" style="fill: #440154; stroke: #440154"/>
    <path d="M 287.648179 135.788744 
C 287.648179 135.788744 287.648179 135.788744 287.648179 135.788744 
C 287.648179 135.788744 287.648179 135.788744 287.648179 135.788744 
C 287.648179 135.788744 287.648179 135.788744 287.648179 135.788744 
C 287.648179 135.788744 287.648179 135.788744 287.648179 135.788744 
C 287.648179 135.788744 287.648179 135.788744 287.648179 135.788744 
C 287.648179 135.788744 287.648179 135.788744 287.648179 135.788744 
C 287.648179 135.788744 287.648179 135.788744 287.648179 135.788744 
C 287.648179 135.788744 287.648179 135.788744 287.648179 135.788744 
z
" clip-path="url(#p376b2bd39f)" style="fill: #31688e; stroke: #31688e"/>
    <path d="M 626.791366 373.621095 
C 626.791366 373.621095 626.791366 373.621095 626.791366 373.621095 
C 626.791366 373.621095 626.791366 373.621095 626.791366 373.621095 
C 626.791366 373.621095 626.791366 373.621095 626.791366 373.621095 
C 626.791366 373.621095 626.791366 373.621095 626.791366 373.621095 
C 626.791366 373.621095 626.791366 373.621095 626.791366 373.621095 
C 626.791366 373.621095 626.791366 373.621095 626.791366 373.621095 
C 626.791366 373.621095 626.791366 373.621095 626.791366 373.621095 
C 626.791366 373.621095 626.791366 373.621095 626.791366 373.621095 
z
" clip-path="url(#p376b2bd39f)" style="fill: #440154; stroke: #440154"/>
    <path d="M 604.247949 316.085169 
C 604.247949 316.085169 604.247949 316.085169 604.247949 316.085169 
C 604.247949 316.085169 604.247949 316.085169 604.247949 316.085169 
C 604.247949 316.085169 604.247949 316.085169 604.247949 316.085169 
C 604.247949 316.085169 604.247949 316.085169 604.247949 316.085169 
C 604.247949 316.085169 604.247949 316.085169 604.247949 316.085169 
C 604.247949 316.085169 604.247949 316.085169 604.247949 316.085169 
C 604.247949 316.085169 604.247949 316.085169 604.247949 316.085169 
C 604.247949 316.085169 604.247949 316.085169 604.247949 316.085169 
z
" clip-path="url(#p376b2bd39f)" style="fill: #440154; stroke: #440154"/>
    <path d="M 599.248087 503.661064 
C 601.66905 503.661064 603.991181 502.699206 605.70306 500.987327 
C 607.414938 499.275449 608.376797 496.953317 608.376797 494.532355 
C 608.376797 492.111393 607.414938 489.789261 605.70306 488.077383 
C 603.991181 486.365504 601.66905 485.403646 599.248087 485.403646 
C 596.827125 485.403646 594.504994 486.365504 592.793115 488.077383 
C 591.081237 489.789261 590.119378 492.111393 590.119378 494.532355 
C 590.119378 496.953317 591.081237 499.275449 592.793115 500.987327 
C 594.504994 502.699206 596.827125 503.661064 599.248087 503.661064 
z
" clip-path="url(#p376b2bd39f)" style="fill: #35b779; stroke: #35b779"/>
    <path d="M 180.08871 104.304815 
C 180.08871 104.304815 180.08871 104.304815 180.08871 104.304815 
C 180.08871 104.304815 180.08871 104.304815 180.08871 104.304815 
C 180.08871 104.304815 180.08871 104.304815 180.08871 104.304815 
C 180.08871 104.304815 180.08871 104.304815 180.08871 104.304815 
C 180.08871 104.304815 180.08871 104.304815 180.08871 104.304815 
C 180.08871 104.304815 180.08871 104.304815 180.08871 104.304815 
C 180.08871 104.304815 180.08871 104.304815 180.08871 104.304815 
C 180.08871 104.304815 180.08871 104.304815 180.08871 104.304815 
z
" clip-path="url(#p376b2bd39f)" style="fill: #fde725; stroke: #fde725"/>
    <path d="M 402.984534 427.96278 
C 402.984534 427.96278 402.984534 427.96278 402.984534 427.96278 
C 402.984534 427.96278 402.984534 427.96278 402.984534 427.96278 
C 402.984534 427.96278 402.984534 427.96278 402.984534 427.96278 
C 402.984534 427.96278 402.984534 427.96278 402.984534 427.96278 
C 402.984534 427.96278 402.984534 427.96278 402.984534 427.96278 
C 402.984534 427.96278 402.984534 427.96278 402.984534 427.96278 
C 402.984534 427.96278 402.984534 427.96278 402.984534 427.96278 
C 402.984534 427.96278 402.984534 427.96278 402.984534 427.96278 
z
" clip-path="url(#p376b2bd39f)" style="fill: #440154; stroke: #440154"/>
    <path d="M 657.520661 649.18216 
C 657.520661 649.18216 657.520661 649.18216 657.520661 649.18216 
C 657.520661 649.18216 657.520661 649.18216 657.520661 649.18216 
C 657.520661 649.18216 657.520661 649.18216 657.520661 649.18216 
C 657.520661 649.18216 657.520661 649.18216 657.520661 649.18216 
C 657.520661 649.18216 657.520661 649.18216 657.520661 649.18216 
C 657.520661 649.18216 657.520661 649.18216 657.520661 649.18216 
C 657.520661 649.18216 657.520661 649.18216 657.520661 649.18216 
C 657.520661 649.18216 657.520661 649.18216 657.520661 649.18216 
z
" clip-path="url(#p376b2bd39f)" style="fill: #31688e; stroke: #31688e"/>
    <path d="M 609.235631 657.520661 
C 609.235631 657.520661 609.235631 657.520661 609.235631 657.520661 
C 609.235631 657.520661 609.235631 657.520661 609.235631 657.520661 
C 609.235631 657.520661 609.235631 657.520661 609.235631 657.520661 
C 609.235631 657.520661 609.235631 657.520661 609.235631 657.520661 
C 609.235631 657.520661 609.235631 657.520661 609.235631 657.520661 
C 609.235631 657.520661 609.235631 657.520661 609.235631 657.520661 
C 609.235631 657.520661 609.235631 657.520661 609.235631 657.520661 
C 609.235631 657.520661 609.235631 657.520661 609.235631 657.520661 
z
" clip-path="url(#p376b2bd39f)" style="fill: #31688e; stroke: #31688e"/>
    <path d="M 641.634484 582.631779 
C 644.055446 582.631779 646.377578 581.669921 648.089456 579.958042 
C 649.801335 578.246163 650.763193 575.924032 650.763193 573.50307 
C 650.763193 571.082108 649.801335 568.759976 648.089456 567.048098 
C 646.377578 565.336219 644.055446 564.374361 641.634484 564.374361 
C 639.213522 564.374361 636.891391 565.336219 635.179512 567.048098 
C 633.467633 568.759976 632.505775 571.082108 632.505775 573.50307 
C 632.505775 575.924032 633.467633 578.246163 635.179512 579.958042 
C 636.891391 581.669921 639.213522 582.631779 641.634484 582.631779 
z
" clip-path="url(#p376b2bd39f)" style="fill: #35b779; stroke: #35b779"/>
    <path d="M 604.045901 592.289493 
C 606.466863 592.289493 608.788995 591.327634 610.500874 589.615756 
C 612.212752 587.903877 613.174611 585.581745 613.174611 583.160783 
C 613.174611 580.739821 612.212752 578.41769 610.500874 576.705811 
C 608.788995 574.993932 606.466863 574.032074 604.045901 574.032074 
C 601.624939 574.032074 599.302808 574.993932 597.590929 576.705811 
C 595.879051 578.41769 594.917192 580.739821 594.917192 583.160783 
C 594.917192 585.581745 595.879051 587.903877 597.590929 589.615756 
C 599.302808 591.327634 601.624939 592.289493 604.045901 592.289493 
z
" clip-path="url(#p376b2bd39f)" style="fill: #35b779; stroke: #35b779"/>
    <path d="M 75.78415 240.712147 
C 75.78415 240.712147 75.78415 240.712147 75.78415 240.712147 
C 75.78415 240.712147 75.78415 240.712147 75.78415 240.712147 
C 75.78415 240.712147 75.78415 240.712147 75.78415 240.712147 
C 75.78415 240.712147 75.78415 240.712147 75.78415 240.712147 
C 75.78415 240.712147 75.78415 240.712147 75.78415 240.712147 
C 75.78415 240.712147 75.78415 240.712147 75.78415 240.712147 
C 75.78415 240.712147 75.78415 240.712147 75.78415 240.712147 
C 75.78415 240.712147 75.78415 240.712147 75.78415 240.712147 
z
" clip-path="url(#p376b2bd39f)" style="fill: #31688e; stroke: #31688e"/>
    <path d="M 128.605946 226.847454 
C 128.605946 226.847454 128.605946 226.847454 128.605946 226.847454 
C 128.605946 226.847454 128.605946 226.847454 128.605946 226.847454 
C 128.605946 226.847454 128.605946 226.847454 128.605946 226.847454 
C 128.605946 226.847454 128.605946 226.847454 128.605946 226.847454 
C 128.605946 226.847454 128.605946 226.847454 128.605946 226.847454 
C 128.605946 226.847454 128.605946 226.847454 128.605946 226.847454 
C 128.605946 226.847454 128.605946 226.847454 128.605946 226.847454 
C 128.605946 226.847454 128.605946 226.847454 128.605946 226.847454 
z
" clip-path="url(#p376b2bd39f)" style="fill: #35b779; stroke: #35b779"/>
    <path d="M 62.479339 161.607712 
C 62.479339 161.607712 62.479339 161.607712 62.479339 161.607712 
C 62.479339 161.607712 62.479339 161.607712 62.479339 161.607712 
C 62.479339 161.607712 62.479339 161.607712 62.479339 161.607712 
C 62.479339 161.607712 62.479339 161.607712 62.479339 161.607712 
C 62.479339 161.607712 62.479339 161.607712 62.479339 161.607712 
C 62.479339 161.607712 62.479339 161.607712 62.479339 161.607712 
C 62.479339 161.607712 62.479339 161.607712 62.479339 161.607712 
C 62.479339 161.607712 62.479339 161.607712 62.479339 161.607712 
z
" clip-path="url(#p376b2bd39f)" style="fill: #35b779; stroke: #35b779"/>
    <path d="M 185.566428 209.402487 
C 185.566428 209.402487 185.566428 209.402487 185.566428 209.402487 
C 185.566428 209.402487 185.566428 209.402487 185.566428 209.402487 
C 185.566428 209.402487 185.566428 209.402487 185.566428 209.402487 
C 185.566428 209.402487 185.566428 209.402487 185.566428 209.402487 
C 185.566428 209.402487 185.566428 209.402487 185.566428 209.402487 
C 185.566428 209.402487 185.566428 209.402487 185.566428 209.402487 
C 185.566428 209.402487 185.566428 209.402487 185.566428 209.402487 
C 185.566428 209.402487 185.566428 209.402487 185.566428 209.402487 
z
" clip-path="url(#p376b2bd39f)" style="fill: #31688e; stroke: #31688e"/>
    <path d="M 121.164261 153.861921 
C 121.164261 153.861921 121.164261 153.861921 121.164261 153.861921 
C 121.164261 153.861921 121.164261 153.861921 121.164261 153.861921 
C 121.164261 153.861921 121.164261 153.861921 121.164261 153.861921 
C 121.164261 153.861921 121.164261 153.861921 121.164261 153.861921 
C 121.164261 153.861921 121.164261 153.861921 121.164261 153.861921 
C 121.164261 153.861921 121.164261 153.861921 121.164261 153.861921 
C 121.164261 153.861921 121.164261 153.861921 121.164261 153.861921 
C 121.164261 153.861921 121.164261 153.861921 121.164261 153.861921 
z
" clip-path="url(#p376b2bd39f)" style="fill: #fde725; stroke: #fde725"/>
    <path d="M 168.852473 139.328041 
C 168.852473 139.328041 168.852473 139.328041 168.852473 139.328041 
C 168.852473 139.328041 168.852473 139.328041 168.852473 139.328041 
C 168.852473 139.328041 168.852473 139.328041 168.852473 139.328041 
C 168.852473 139.328041 168.852473 139.328041 168.852473 139.328041 
C 168.852473 139.328041 168.852473 139.328041 168.852473 139.328041 
C 168.852473 139.328041 168.852473 139.328041 168.852473 139.328041 
C 168.852473 139.328041 168.852473 139.328041 168.852473 139.328041 
C 168.852473 139.328041 168.852473 139.328041 168.852473 139.328041 
z
" clip-path="url(#p376b2bd39f)" style="fill: #35b779; stroke: #35b779"/>
    <path d="M 94.544173 94.436842 
C 94.544173 94.436842 94.544173 94.436842 94.544173 94.436842 
C 94.544173 94.436842 94.544173 94.436842 94.544173 94.436842 
C 94.544173 94.436842 94.544173 94.436842 94.544173 94.436842 
C 94.544173 94.436842 94.544173 94.436842 94.544173 94.436842 
C 94.544173 94.436842 94.544173 94.436842 94.544173 94.436842 
C 94.544173 94.436842 94.544173 94.436842 94.544173 94.436842 
C 94.544173 94.436842 94.544173 94.436842 94.544173 94.436842 
C 94.544173 94.436842 94.544173 94.436842 94.544173 94.436842 
z
" clip-path="url(#p376b2bd39f)" style="fill: #31688e; stroke: #31688e"/>
    <path d="M 187.658831 62.479339 
C 187.658831 62.479339 187.658831 62.479339 187.658831 62.479339 
C 187.658831 62.479339 187.658831 62.479339 187.658831 62.479339 
C 187.658831 62.479339 187.658831 62.479339 187.658831 62.479339 
C 187.658831 62.479339 187.658831 62.479339 187.658831 62.479339 
C 187.658831 62.479339 187.658831 62.479339 187.658831 62.479339 
C 187.658831 62.479339 187.658831 62.479339 187.658831 62.479339 
C 187.658831 62.479339 187.658831 62.479339 187.658831 62.479339 
C 187.658831 62.479339 187.658831 62.479339 187.658831 62.479339 
z
" clip-path="url(#p376b2bd39f)" style="fill: #31688e; stroke: #31688e"/>
   </g>
  </g>
 </g>
 <defs>
  <clipPath id="p376b2bd39f">
   <rect x="0" y="0" width="720" height="720"/>
  </clipPath>
 </defs>
</svg>
